# xmcd
#
# Track frame offsets:
#	150
#	12986
#	27432
#	40199
#	50783
#	60380
#	72578
#	89440
#	100053
#	114563
#	129336
#	140647
#	154800
#	164270
#	175774
#	187257
#	199549
#	212748
#
# Disc length: 2971 seconds
#
# Revision: 1
# Processed by: cddbd v1.5.1PL0 Copyright (c) Steve Scherf et al.
# Submitted via: audiograbber 1.83.01
#
DISCID=040b9912
DTITLE=Various Artist - Country Classics
DYEAR=2004
DGENRE=Country
TTITLE0=Lynn Anderson - Rose Garden
TTITLE1=Jeannie C Riley - Harper Valley PTA
TTITLE2=Dolly Parton - Little Blossom
TTITLE3=Hank Locklin - Please Help Me I'm Falling
TTITLE4=Ned Miller - From A Jack To A King
TTITLE5=Johnny Cash - I Walk The Line
TTITLE6=Roy Orbison - Oh Pretty Woman
TTITLE7=Stonewall Jackson - Waterloo
TTITLE8=Loretta Lynn - Coal Miner's Daughter
TTITLE9=Gene Autry - Tumbling Tumbleweeds
TTITLE10=Patsy Cline - Crazy Dreams
TTITLE11=Vic Damone - By The Time I Get To Phoenix
TTITLE12=Dave Dudley - Six Days On The Road
TTITLE13=Barbara Fairchild - Cheatin' Is
TTITLE14=Freddy Fender - Before The Next Teardrop Falls
TTITLE15=Frankie Laine - High Noon
TTITLE16=Jerry Lee Lewis - You Win Again
TTITLE17=Willie Nelson - Broken Promises
EXTD=
EXTT0=
EXTT1=
EXTT2=
EXTT3=
EXTT4=
EXTT5=
EXTT6=
EXTT7=
EXTT8=
EXTT9=
EXTT10=
EXTT11=
EXTT12=
EXTT13=
EXTT14=
EXTT15=
EXTT16=
EXTT17=
PLAYORDER=
